<svg width="45" height="144" viewBox="0 0 45 144" fill="none" xmlns="http://www.w3.org/2000/svg">
<path d="M5.125 138.125H39.875V68.5417C39.875 66.6962 39.2648 64.9263 38.1787 63.6214C37.0925 62.3165 35.6194 61.5833 34.0833 61.5833H10.9167C9.38062 61.5833 7.90749 62.3165 6.82134 63.6214C5.73519 64.9263 5.125 66.6962 5.125 68.5417V138.125ZM22.5 5.91667L30.9848 17.3144C32.4988 19.27 33.5125 21.7076 33.9049 24.3364C34.2973 26.9653 34.0518 29.6742 33.1977 32.14C32.3436 34.6057 30.917 36.7241 29.0881 38.2424C27.2593 39.7606 25.1054 40.6145 22.8836 40.7021C20.6619 40.7898 18.466 40.1075 16.5582 38.7367C14.6504 37.3659 13.1112 35.3645 12.1243 32.9713C11.1374 30.5782 10.7445 27.8944 10.9925 25.2403C11.2405 22.5862 12.1189 20.0739 13.5229 18.0033L22.5 5.91667Z" stroke="#767676" stroke-width="10" stroke-linecap="round" stroke-linejoin="round"/>
</svg>
